<svg width="76" height="20" viewBox="0 0 76 20" fill="none" xmlns="http://www.w3.org/2000/svg">
    <g clip-path="url(#clip0_44_393)">
        <path d="M19.9894 10.1871C19.9894 9.36767 19.9214 8.76973 19.7741 8.14966H10.1992V11.848H15.8195C15.7062 12.7671 15.0943 14.1512 13.7345 15.0813L13.7155 15.2051L16.7429 17.4969L16.9526 17.5174C18.8789 15.7789 19.9894 13.221 19.9894 10.1871Z" fill="#4285F4"/>
        <path d="M10.1991 19.9314C12.9526 19.9314 15.2642 19.0456 16.9526 17.5175L13.7345 15.0814C12.8733 15.6683 11.7175 16.078 10.1991 16.078C7.5023 16.078 5.2134 14.3396 4.39747 11.9368L4.27787 11.9467L1.12991 14.3274L1.08875 14.4392C2.76576 17.6946 6.21048 19.9314 10.1991 19.9314Z" fill="#34A853"/>
        <path d="M4.3976 11.9367C4.18231 11.3166 4.05771 10.6522 4.05771 9.96571C4.05771 9.27915 4.18231 8.61479 4.38627 7.99472L4.38057 7.86266L1.19316 5.44373L1.08888 5.4922C0.397698 6.84311 0.00109863 8.36014 0.00109863 9.96571C0.00109863 11.5713 0.397698 13.0882 1.08888 14.4391L4.3976 11.9367Z" fill="#FBBC05"/>
        <path d="M10.1992 3.85336C12.1141 3.85336 13.4059 4.66168 14.1424 5.33718L17.0206 2.59107C15.2529 0.985496 12.9526 0 10.1992 0C6.2105 0 2.76578 2.23672 1.08876 5.49214L4.38616 7.99466C5.21342 5.59183 7.50232 3.85336 10.1992 3.85336Z" fill="#EB4335"/>
    </g>
    <path d="M36.0092 8.0348C35.9131 7.73319 35.7839 7.46307 35.6214 7.22443C35.4624 6.98248 35.2718 6.77699 35.0497 6.60795C34.8277 6.43561 34.5741 6.30469 34.2891 6.2152C34.0073 6.12571 33.6974 6.08097 33.3594 6.08097C32.786 6.08097 32.2689 6.22846 31.8082 6.52344C31.3475 6.81842 30.983 7.25095 30.7145 7.82102C30.4493 8.38778 30.3168 9.08215 30.3168 9.90412C30.3168 10.7294 30.451 11.4271 30.7195 11.9972C30.9879 12.5672 31.3558 12.9998 31.8232 13.2947C32.2905 13.5897 32.8224 13.7372 33.419 13.7372C33.9725 13.7372 34.4548 13.6245 34.8658 13.3991C35.2801 13.1738 35.5999 12.8556 35.8253 12.4446C36.054 12.0303 36.1683 11.5431 36.1683 10.983L36.5661 11.0575H33.6527V9.78977H37.6548V10.9482C37.6548 11.8033 37.4725 12.5457 37.108 13.1754C36.7467 13.8018 36.2462 14.2857 35.6065 14.6271C34.9702 14.9685 34.241 15.1392 33.419 15.1392C32.4976 15.1392 31.6889 14.9271 30.9929 14.5028C30.3002 14.0786 29.7599 13.477 29.3722 12.6982C28.9844 11.916 28.7905 10.9879 28.7905 9.91406C28.7905 9.10204 28.9032 8.37287 29.1286 7.72656C29.3539 7.08026 29.6705 6.53172 30.0781 6.08097C30.4891 5.62689 30.9714 5.28054 31.5249 5.0419C32.0817 4.79995 32.6899 4.67898 33.3494 4.67898C33.8996 4.67898 34.4117 4.76018 34.8857 4.92258C35.3629 5.08499 35.7872 5.31534 36.1584 5.61364C36.5329 5.91193 36.8428 6.26657 37.0881 6.67756C37.3333 7.08523 37.4991 7.53764 37.5852 8.0348H36.0092ZM42.7022 15.1541C41.9863 15.1541 41.3616 14.9901 40.8279 14.6619C40.2943 14.3338 39.88 13.8748 39.585 13.2848C39.2901 12.6948 39.1426 12.0054 39.1426 11.2166C39.1426 10.4245 39.2901 9.73177 39.585 9.13849C39.88 8.54522 40.2943 8.08452 40.8279 7.75639C41.3616 7.42827 41.9863 7.2642 42.7022 7.2642C43.4181 7.2642 44.0429 7.42827 44.5765 7.75639C45.1101 8.08452 45.5244 8.54522 45.8194 9.13849C46.1144 9.73177 46.2619 10.4245 46.2619 11.2166C46.2619 12.0054 46.1144 12.6948 45.8194 13.2848C45.5244 13.8748 45.1101 14.3338 44.5765 14.6619C44.0429 14.9901 43.4181 15.1541 42.7022 15.1541ZM42.7072 13.9062C43.1712 13.9062 43.5557 13.7836 43.8606 13.5384C44.1655 13.2931 44.3909 12.9666 44.5368 12.5589C44.6859 12.1513 44.7605 11.7022 44.7605 11.2116C44.7605 10.7244 44.6859 10.277 44.5368 9.86932C44.3909 9.45833 44.1655 9.12855 43.8606 8.87997C43.5557 8.63139 43.1712 8.5071 42.7072 8.5071C42.2399 8.5071 41.8521 8.63139 41.5439 8.87997C41.2389 9.12855 41.0119 9.45833 40.8627 9.86932C40.7169 10.277 40.644 10.7244 40.644 11.2116C40.644 11.7022 40.7169 12.1513 40.8627 12.5589C41.0119 12.9666 41.2389 13.2931 41.5439 13.5384C41.8521 13.7836 42.2399 13.9062 42.7072 13.9062ZM51.1378 15.1541C50.4219 15.1541 49.7971 14.9901 49.2635 14.6619C48.7299 14.3338 48.3156 13.8748 48.0206 13.2848C47.7256 12.6948 47.5781 12.0054 47.5781 11.2166C47.5781 10.4245 47.7256 9.73177 48.0206 9.13849C48.3156 8.54522 48.7299 8.08452 49.2635 7.75639C49.7971 7.42827 50.4219 7.2642 51.1378 7.2642C51.8537 7.2642 52.4785 7.42827 53.0121 7.75639C53.5457 8.08452 53.96 8.54522 54.255 9.13849C54.55 9.73177 54.6974 10.4245 54.6974 11.2166C54.6974 12.0054 54.55 12.6948 54.255 13.2848C53.96 13.8748 53.5457 14.3338 53.0121 14.6619C52.4785 14.9901 51.8537 15.1541 51.1378 15.1541ZM51.1428 13.9062C51.6068 13.9062 51.9912 13.7836 52.2962 13.5384C52.6011 13.2931 52.8265 12.9666 52.9723 12.5589C53.1214 12.1513 53.196 11.7022 53.196 11.2116C53.196 10.7244 53.1214 10.277 52.9723 9.86932C52.8265 9.45833 52.6011 9.12855 52.2962 8.87997C51.9912 8.63139 51.6068 8.5071 51.1428 8.5071C50.6754 8.5071 50.2876 8.63139 49.9794 8.87997C49.6745 9.12855 49.4474 9.45833 49.2983 9.86932C49.1525 10.277 49.0795 10.7244 49.0795 11.2116C49.0795 11.7022 49.1525 12.1513 49.2983 12.5589C49.4474 12.9666 49.6745 13.2931 49.9794 13.5384C50.2876 13.7836 50.6754 13.9062 51.1428 13.9062ZM59.5584 18.0227C58.9519 18.0227 58.4299 17.9432 57.9924 17.7841C57.5582 17.625 57.2035 17.4145 56.9284 17.1527C56.6533 16.8909 56.4479 16.6042 56.312 16.2926L57.5897 15.7656C57.6792 15.9115 57.7985 16.0656 57.9476 16.228C58.1001 16.3937 58.3056 16.5346 58.5641 16.6506C58.8259 16.7666 59.1623 16.8246 59.5733 16.8246C60.1368 16.8246 60.6025 16.687 60.9703 16.4119C61.3382 16.1402 61.5222 15.706 61.5222 15.1094V13.608H61.4277C61.3382 13.7704 61.209 13.951 61.04 14.1499C60.8742 14.3487 60.6455 14.5211 60.3539 14.6669C60.0622 14.8127 59.6827 14.8857 59.2154 14.8857C58.6122 14.8857 58.0686 14.7448 57.5847 14.4631C57.1041 14.178 56.723 13.7588 56.4412 13.2053C56.1628 12.6484 56.0236 11.964 56.0236 11.152C56.0236 10.34 56.1612 9.64394 56.4363 9.06392C56.7147 8.4839 57.0958 8.03977 57.5797 7.73153C58.0636 7.41998 58.6122 7.2642 59.2253 7.2642C59.6993 7.2642 60.0821 7.34375 60.3738 7.50284C60.6654 7.65862 60.8925 7.84091 61.0549 8.04972C61.2206 8.25852 61.3482 8.44247 61.4377 8.60156H61.5471V7.36364H63.0037V15.169C63.0037 15.8253 62.8513 16.3639 62.5463 16.7848C62.2414 17.2057 61.8288 17.5173 61.3084 17.7195C60.7914 17.9216 60.208 18.0227 59.5584 18.0227ZM59.5435 13.6527C59.9711 13.6527 60.3323 13.5533 60.6273 13.3544C60.9256 13.1522 61.151 12.8639 61.3034 12.4893C61.4592 12.1115 61.5371 11.6591 61.5371 11.1321C61.5371 10.6184 61.4609 10.166 61.3084 9.77486C61.156 9.38376 60.9322 9.07884 60.6373 8.86009C60.3423 8.63802 59.9777 8.52699 59.5435 8.52699C59.0961 8.52699 58.7232 8.64299 58.4249 8.875C58.1266 9.10369 57.9012 9.41525 57.7488 9.80966C57.5996 10.2041 57.525 10.6449 57.525 11.1321C57.525 11.6326 57.6013 12.0717 57.7537 12.4496C57.9062 12.8274 58.1316 13.1224 58.4299 13.3345C58.7315 13.5466 59.1027 13.6527 59.5435 13.6527ZM66.4838 4.81818V15H64.9973V4.81818H66.4838ZM71.7749 15.1541C71.0225 15.1541 70.3745 14.9934 69.831 14.6719C69.2907 14.3471 68.8731 13.8913 68.5781 13.3047C68.2865 12.7147 68.1406 12.0237 68.1406 11.2315C68.1406 10.4493 68.2865 9.75994 68.5781 9.16335C68.8731 8.56676 69.2841 8.10109 69.8111 7.76633C70.3414 7.43158 70.9612 7.2642 71.6705 7.2642C72.1013 7.2642 72.5189 7.33546 72.9233 7.47798C73.3277 7.6205 73.6906 7.84422 74.0121 8.14915C74.3336 8.45407 74.5871 8.85014 74.7727 9.33736C74.9583 9.82126 75.0511 10.4096 75.0511 11.1023V11.6293H68.9808V10.5156H73.5945C73.5945 10.1245 73.5149 9.77817 73.3558 9.47656C73.1967 9.17164 72.973 8.93134 72.6847 8.75568C72.3996 8.58002 72.0649 8.49219 71.6804 8.49219C71.2628 8.49219 70.8982 8.59493 70.5866 8.80043C70.2784 9.0026 70.0398 9.26776 69.8707 9.59588C69.705 9.92069 69.6222 10.2737 69.6222 10.6548V11.5249C69.6222 12.0353 69.7116 12.4695 69.8906 12.8274C70.0729 13.1854 70.3265 13.4588 70.6513 13.6477C70.9761 13.8333 71.3556 13.9261 71.7898 13.9261C72.0715 13.9261 72.3284 13.8864 72.5604 13.8068C72.7924 13.724 72.9929 13.6013 73.1619 13.4389C73.331 13.2765 73.4602 13.076 73.5497 12.8374L74.9567 13.0909C74.844 13.5052 74.6418 13.8681 74.3501 14.1797C74.0618 14.4879 73.6989 14.7282 73.2614 14.9006C72.8272 15.0696 72.3317 15.1541 71.7749 15.1541Z" fill="black"/>
    <defs>
        <clipPath id="clip0_44_393">
            <rect width="20" height="20" fill="white"/>
        </clipPath>
    </defs>
</svg>
