<svg width="186" height="65" viewBox="0 0 186 65" fill="none" xmlns="http://www.w3.org/2000/svg">
    <path d="M55.7162 30.415C55.7162 29.035 56.1512 27.97 57.0212 27.22C57.9212 26.47 59.2712 26.095 61.0712 26.095V28.795C60.7112 29.215 60.3512 29.695 59.9912 30.235L60.2612 30.415C61.1612 29.065 62.3162 28.015 63.7262 27.265C65.1362 26.485 66.6962 26.095 68.4062 26.095C69.9362 26.095 71.2862 26.44 72.4562 27.13C73.6262 27.82 74.5262 28.765 75.1562 29.965C75.8162 31.165 76.1462 32.515 76.1462 34.015V45.985C76.1462 47.185 75.6812 48.055 74.7512 48.595C73.8212 49.135 72.4112 49.405 70.5212 49.405V34.825C70.5212 33.685 70.1762 32.755 69.4862 32.035C68.8262 31.315 67.8512 30.955 66.5612 30.955C65.0312 30.955 63.7712 31.435 62.7812 32.395C61.7912 33.325 61.2962 34.495 61.2962 35.905V45.985C61.2962 47.185 60.8462 48.055 59.9462 48.595C59.0462 49.135 57.6362 49.405 55.7162 49.405V30.415ZM83.1785 58.405C82.0085 58.405 81.0785 58 80.3885 57.19C79.7285 56.38 79.3985 55.21 79.3985 53.68C80.2985 53.83 81.0485 53.905 81.6485 53.905C82.7885 53.905 83.6885 53.605 84.3485 53.005C85.0385 52.405 85.7885 51.205 86.5985 49.405L87.3185 47.74L78.6335 26.545C78.8435 26.425 79.2035 26.32 79.7135 26.23C80.2535 26.14 80.6885 26.095 81.0185 26.095C81.8885 26.095 82.6835 26.29 83.4035 26.68C84.1235 27.04 84.6185 27.55 84.8885 28.21L89.7035 40.855L88.9385 42.97L89.3435 43.105L95.1485 28.21C95.4185 27.52 95.8985 26.995 96.5885 26.635C97.3085 26.275 98.1035 26.095 98.9735 26.095C99.3035 26.095 99.7235 26.14 100.234 26.23C100.774 26.32 101.164 26.425 101.404 26.545L91.3235 51.025C90.2735 53.545 89.1185 55.405 87.8585 56.605C86.6285 57.805 85.0685 58.405 83.1785 58.405ZM110.252 49.405C108.722 49.405 107.312 49.105 106.022 48.505C104.762 47.905 103.742 47.05 102.962 45.94C102.212 44.8 101.837 43.45 101.837 41.89C101.837 40.33 102.242 38.98 103.052 37.84C103.862 36.67 104.957 35.785 106.337 35.185C107.747 34.555 109.292 34.24 110.972 34.24C112.352 34.24 113.582 34.465 114.662 34.915C115.772 35.335 116.792 35.98 117.722 36.85L117.947 36.625C117.677 36.355 117.212 35.95 116.552 35.41V34.51C116.552 33.28 116.117 32.305 115.247 31.585C114.377 30.865 113.162 30.505 111.602 30.505C108.812 30.505 106.757 31.525 105.437 33.565C104.777 33.355 104.222 33.025 103.772 32.575C103.322 32.095 103.097 31.585 103.097 31.045C103.097 30.145 103.502 29.32 104.312 28.57C105.122 27.82 106.217 27.22 107.597 26.77C108.977 26.32 110.477 26.095 112.097 26.095C115.277 26.095 117.737 26.845 119.477 28.345C121.217 29.815 122.087 31.825 122.087 34.375V45.625C122.087 46.945 121.667 47.905 120.827 48.505C119.987 49.105 118.667 49.405 116.867 49.405V47.56C117.377 47.05 117.722 46.675 117.902 46.435L117.722 46.21C116.732 47.26 115.667 48.055 114.527 48.595C113.417 49.135 111.992 49.405 110.252 49.405ZM111.692 45.31C113.252 45.31 114.467 45.01 115.337 44.41C116.207 43.81 116.642 42.955 116.642 41.845C116.642 40.765 116.192 39.91 115.292 39.28C114.422 38.65 113.237 38.335 111.737 38.335C110.357 38.335 109.262 38.65 108.452 39.28C107.672 39.88 107.282 40.735 107.282 41.845C107.282 42.985 107.672 43.855 108.452 44.455C109.232 45.025 110.312 45.31 111.692 45.31ZM147.422 47.785C147.152 48.295 146.762 48.7 146.252 49C145.742 49.27 145.157 49.405 144.497 49.405C143.927 49.405 143.417 49.27 142.967 49C142.517 48.76 142.082 48.355 141.662 47.785L135.722 39.01L132.662 41.845V45.985C132.662 47.185 132.197 48.055 131.267 48.595C130.367 49.135 128.987 49.405 127.127 49.405V21.415C127.127 18.535 129.002 17.095 132.752 17.095V35.68L143.057 26.095C144.557 27.265 145.307 28.225 145.307 28.975C145.307 29.455 145.172 29.875 144.902 30.235C144.662 30.595 144.272 31.015 143.732 31.495L139.007 35.905L147.422 47.785ZM151.649 29.515C151.649 28.285 152.099 27.415 152.999 26.905C153.929 26.365 155.339 26.095 157.229 26.095V45.985C157.229 47.185 156.764 48.055 155.834 48.595C154.904 49.135 153.509 49.405 151.649 49.405V29.515ZM162.547 30.415C162.547 29.035 162.982 27.97 163.852 27.22C164.752 26.47 166.102 26.095 167.902 26.095V28.795C167.542 29.215 167.182 29.695 166.822 30.235L167.092 30.415C167.992 29.065 169.147 28.015 170.557 27.265C171.967 26.485 173.527 26.095 175.237 26.095C176.767 26.095 178.117 26.44 179.287 27.13C180.457 27.82 181.357 28.765 181.987 29.965C182.647 31.165 182.977 32.515 182.977 34.015V45.985C182.977 47.185 182.512 48.055 181.582 48.595C180.652 49.135 179.242 49.405 177.352 49.405V34.825C177.352 33.685 177.007 32.755 176.317 32.035C175.657 31.315 174.682 30.955 173.392 30.955C171.862 30.955 170.602 31.435 169.612 32.395C168.622 33.325 168.127 34.495 168.127 35.905V45.985C168.127 47.185 167.677 48.055 166.777 48.595C165.877 49.135 164.467 49.405 162.547 49.405V30.415Z" fill="#5669FF"/>
    <path d="M49.1822 40.0978L49.29 40.1522C51.7947 41.5685 52.7643 44.7552 51.4446 47.3154C46.866 56.1673 37.6551 62.2138 27.0707 62.132C12.3117 62.0231 0.218987 49.8757 0.00352734 34.9501C-0.238865 19.5343 12.0423 6.97827 27.2592 6.97827C35.8507 6.97827 43.5264 11.0093 48.5089 17.3009L38.7594 22.6392C35.6352 19.5615 31.2991 17.7094 26.559 17.9001C17.8598 18.2542 10.8573 25.5263 10.7496 34.3509C10.6419 43.6657 18.0752 51.2375 27.2323 51.2375C33.5883 51.2375 39.1095 47.615 41.8566 42.2767C43.2571 39.6075 46.5698 38.627 49.1822 40.0978Z" fill="#5669FF"/>
    <path d="M51.5253 21.9856C52.7373 24.3824 51.8755 27.3239 49.5323 28.6313L43.5533 31.9814L28.7405 40.2885C26.4243 41.5958 23.5156 40.9421 21.9535 38.7632L21.8996 38.6815C20.0413 36.0941 20.8492 32.4171 23.6502 30.8919L38.7863 22.612L48.5358 17.2737C49.667 18.7444 50.6635 20.3242 51.5253 21.9856Z" fill="#00F8FF"/>
</svg>
