<svg width="186" height="66" viewBox="0 0 186 66" fill="none" xmlns="http://www.w3.org/2000/svg">
    <path d="M55.7162 31.3955C55.7162 30.0155 56.1512 28.9505 57.0212 28.2005C57.9212 27.4505 59.2712 27.0755 61.0712 27.0755V29.7755C60.7112 30.1955 60.3512 30.6755 59.9912 31.2155L60.2612 31.3955C61.1612 30.0455 62.3162 28.9955 63.7262 28.2455C65.1362 27.4655 66.6962 27.0755 68.4062 27.0755C69.9362 27.0755 71.2862 27.4205 72.4562 28.1105C73.6262 28.8005 74.5262 29.7455 75.1562 30.9455C75.8162 32.1455 76.1462 33.4955 76.1462 34.9955V46.9655C76.1462 48.1655 75.6812 49.0355 74.7512 49.5755C73.8212 50.1155 72.4112 50.3855 70.5212 50.3855V35.8055C70.5212 34.6655 70.1762 33.7355 69.4862 33.0155C68.8262 32.2955 67.8512 31.9355 66.5612 31.9355C65.0312 31.9355 63.7712 32.4155 62.7812 33.3755C61.7912 34.3055 61.2962 35.4755 61.2962 36.8855V46.9655C61.2962 48.1655 60.8462 49.0355 59.9462 49.5755C59.0462 50.1155 57.6362 50.3855 55.7162 50.3855V31.3955Z" fill="#5669FF"/>
    <path d="M83.1785 59.3855C82.0085 59.3855 81.0785 58.9805 80.3885 58.1705C79.7285 57.3605 79.3985 56.1905 79.3985 54.6605C80.2985 54.8105 81.0485 54.8855 81.6485 54.8855C82.7885 54.8855 83.6885 54.5855 84.3485 53.9855C85.0385 53.3855 85.7885 52.1855 86.5985 50.3855L87.3185 48.7205L78.6335 27.5255C78.8435 27.4055 79.2035 27.3005 79.7135 27.2105C80.2535 27.1205 80.6885 27.0755 81.0185 27.0755C81.8885 27.0755 82.6835 27.2705 83.4035 27.6605C84.1235 28.0205 84.6185 28.5305 84.8885 29.1905L89.7035 41.8355L88.9385 43.9505L89.3435 44.0855L95.1485 29.1905C95.4185 28.5005 95.8985 27.9755 96.5885 27.6155C97.3085 27.2555 98.1035 27.0755 98.9735 27.0755C99.3035 27.0755 99.7235 27.1205 100.233 27.2105C100.773 27.3005 101.163 27.4055 101.403 27.5255L91.3235 52.0055C90.2735 54.5255 89.1185 56.3855 87.8585 57.5855C86.6285 58.7855 85.0685 59.3855 83.1785 59.3855ZM110.252 50.3855C108.722 50.3855 107.312 50.0855 106.022 49.4855C104.762 48.8855 103.742 48.0305 102.962 46.9205C102.212 45.7805 101.837 44.4305 101.837 42.8705C101.837 41.3105 102.242 39.9605 103.052 38.8205C103.862 37.6505 104.957 36.7655 106.337 36.1655C107.747 35.5355 109.292 35.2205 110.972 35.2205C112.352 35.2205 113.582 35.4455 114.662 35.8955C115.772 36.3155 116.792 36.9605 117.722 37.8305L117.947 37.6055C117.677 37.3355 117.212 36.9305 116.552 36.3905V35.4905C116.552 34.2605 116.117 33.2855 115.247 32.5655C114.377 31.8455 113.162 31.4855 111.602 31.4855C108.812 31.4855 106.757 32.5055 105.437 34.5455C104.777 34.3355 104.222 34.0055 103.772 33.5555C103.322 33.0755 103.097 32.5655 103.097 32.0255C103.097 31.1255 103.502 30.3005 104.312 29.5505C105.122 28.8005 106.217 28.2005 107.597 27.7505C108.977 27.3005 110.477 27.0755 112.097 27.0755C115.277 27.0755 117.737 27.8255 119.477 29.3255C121.217 30.7955 122.087 32.8055 122.087 35.3555V46.6055C122.087 47.9255 121.667 48.8855 120.827 49.4855C119.987 50.0855 118.667 50.3855 116.867 50.3855V48.5405C117.377 48.0305 117.722 47.6555 117.902 47.4155L117.722 47.1905C116.732 48.2405 115.667 49.0355 114.527 49.5755C113.417 50.1155 111.992 50.3855 110.252 50.3855ZM111.692 46.2905C113.252 46.2905 114.467 45.9905 115.337 45.3905C116.207 44.7905 116.642 43.9355 116.642 42.8255C116.642 41.7455 116.192 40.8905 115.292 40.2605C114.422 39.6305 113.237 39.3155 111.737 39.3155C110.357 39.3155 109.262 39.6305 108.452 40.2605C107.672 40.8605 107.282 41.7155 107.282 42.8255C107.282 43.9655 107.672 44.8355 108.452 45.4355C109.232 46.0055 110.312 46.2905 111.692 46.2905ZM147.422 48.7655C147.152 49.2755 146.762 49.6805 146.252 49.9805C145.742 50.2505 145.157 50.3855 144.497 50.3855C143.927 50.3855 143.417 50.2505 142.967 49.9805C142.517 49.7405 142.082 49.3355 141.662 48.7655L135.722 39.9905L132.662 42.8255V46.9655C132.662 48.1655 132.197 49.0355 131.267 49.5755C130.367 50.1155 128.987 50.3855 127.127 50.3855V22.3955C127.127 19.5155 129.002 18.0755 132.752 18.0755V36.6605L143.057 27.0755C144.557 28.2455 145.307 29.2055 145.307 29.9555C145.307 30.4355 145.172 30.8555 144.902 31.2155C144.662 31.5755 144.272 31.9955 143.732 32.4755L139.007 36.8855L147.422 48.7655ZM151.649 30.4955C151.649 29.2655 152.099 28.3955 152.999 27.8855C153.929 27.3455 155.339 27.0755 157.229 27.0755V46.9655C157.229 48.1655 156.764 49.0355 155.834 49.5755C154.904 50.1155 153.509 50.3855 151.649 50.3855V30.4955ZM162.547 31.3955C162.547 30.0155 162.982 28.9505 163.852 28.2005C164.752 27.4505 166.102 27.0755 167.902 27.0755V29.7755C167.542 30.1955 167.182 30.6755 166.822 31.2155L167.092 31.3955C167.992 30.0455 169.147 28.9955 170.557 28.2455C171.967 27.4655 173.527 27.0755 175.237 27.0755C176.767 27.0755 178.117 27.4205 179.287 28.1105C180.457 28.8005 181.357 29.7455 181.987 30.9455C182.647 32.1455 182.977 33.4955 182.977 34.9955V46.9655C182.977 48.1655 182.512 49.0355 181.582 49.5755C180.652 50.1155 179.242 50.3855 177.352 50.3855V35.8055C177.352 34.6655 177.007 33.7355 176.317 33.0155C175.657 32.2955 174.682 31.9355 173.392 31.9355C171.862 31.9355 170.602 32.4155 169.612 33.3755C168.622 34.3055 168.127 35.4755 168.127 36.8855V46.9655C168.127 48.1655 167.677 49.0355 166.777 49.5755C165.877 50.1155 164.467 50.3855 162.547 50.3855V31.3955Z" fill="#00F8FF"/>
    <path d="M49.1822 41.0782L49.29 41.1327C51.7947 42.549 52.7643 45.7357 51.4446 48.2959C46.866 57.1477 37.6551 63.1942 27.0707 63.1125C12.3117 63.0036 0.218987 50.8561 0.00352734 35.9306C-0.238865 20.5147 12.0423 7.95874 27.2592 7.95874C35.8507 7.95874 43.5264 11.9897 48.5089 18.2813L38.7594 23.6197C35.6352 20.542 31.2991 18.6899 26.559 18.8805C17.8598 19.2346 10.8573 26.5067 10.7496 35.3314C10.6419 44.6462 18.0752 52.2179 27.2323 52.2179C33.5883 52.2179 39.1095 48.5955 41.8566 43.2572C43.2571 40.588 46.5698 39.6075 49.1822 41.0782Z" fill="#5669FF"/>
    <path d="M51.5254 22.9661C52.7373 25.3629 51.8755 28.3044 49.5324 29.6117L43.5534 32.9618L28.7405 41.2689C26.4243 42.5763 23.5156 41.9226 21.9535 39.7437L21.8996 39.662C20.0413 37.0745 20.8493 33.3976 23.6503 31.8724L38.7863 23.5925L48.5359 18.2542C49.667 19.7249 50.6635 21.3046 51.5254 22.9661Z" fill="#00F8FF"/>
</svg>
