<svg width="237" height="60" viewBox="0 0 237 60" fill="none" xmlns="http://www.w3.org/2000/svg">
    <path d="M53.655 30.415C53.655 29.035 54.09 27.97 54.96 27.22C55.86 26.47 57.21 26.095 59.01 26.095V28.795C58.65 29.215 58.29 29.695 57.93 30.235L58.2 30.415C59.1 29.065 60.255 28.015 61.665 27.265C63.075 26.485 64.635 26.095 66.345 26.095C67.875 26.095 69.225 26.44 70.395 27.13C71.565 27.82 72.465 28.765 73.095 29.965C73.755 31.165 74.085 32.515 74.085 34.015V45.985C74.085 47.185 73.62 48.055 72.69 48.595C71.76 49.135 70.35 49.405 68.46 49.405V34.825C68.46 33.685 68.115 32.755 67.425 32.035C66.765 31.315 65.79 30.955 64.5 30.955C62.97 30.955 61.71 31.435 60.72 32.395C59.73 33.325 59.235 34.495 59.235 35.905V45.985C59.235 47.185 58.785 48.055 57.885 48.595C56.985 49.135 55.575 49.405 53.655 49.405V30.415Z" fill="#5669FF"/>
    <path d="M81.1173 58.405C79.9473 58.405 79.0173 58 78.3273 57.19C77.6673 56.38 77.3373 55.21 77.3373 53.68C78.2373 53.83 78.9873 53.905 79.5873 53.905C80.7273 53.905 81.6273 53.605 82.2873 53.005C82.9773 52.405 83.7273 51.205 84.5373 49.405L85.2573 47.74L76.5723 26.545C76.7823 26.425 77.1423 26.32 77.6523 26.23C78.1923 26.14 78.6273 26.095 78.9573 26.095C79.8273 26.095 80.6223 26.29 81.3423 26.68C82.0623 27.04 82.5573 27.55 82.8273 28.21L87.6423 40.855L86.8773 42.97L87.2823 43.105L93.0873 28.21C93.3573 27.52 93.8373 26.995 94.5273 26.635C95.2473 26.275 96.0423 26.095 96.9123 26.095C97.2423 26.095 97.6623 26.14 98.1723 26.23C98.7123 26.32 99.1023 26.425 99.3423 26.545L89.2623 51.025C88.2123 53.545 87.0573 55.405 85.7973 56.605C84.5673 57.805 83.0073 58.405 81.1173 58.405ZM108.19 49.405C106.66 49.405 105.25 49.105 103.96 48.505C102.7 47.905 101.68 47.05 100.9 45.94C100.15 44.8 99.7754 43.45 99.7754 41.89C99.7754 40.33 100.18 38.98 100.99 37.84C101.8 36.67 102.895 35.785 104.275 35.185C105.685 34.555 107.23 34.24 108.91 34.24C110.29 34.24 111.52 34.465 112.6 34.915C113.71 35.335 114.73 35.98 115.66 36.85L115.885 36.625C115.615 36.355 115.15 35.95 114.49 35.41V34.51C114.49 33.28 114.055 32.305 113.185 31.585C112.315 30.865 111.1 30.505 109.54 30.505C106.75 30.505 104.695 31.525 103.375 33.565C102.715 33.355 102.16 33.025 101.71 32.575C101.26 32.095 101.035 31.585 101.035 31.045C101.035 30.145 101.44 29.32 102.25 28.57C103.06 27.82 104.155 27.22 105.535 26.77C106.915 26.32 108.415 26.095 110.035 26.095C113.215 26.095 115.675 26.845 117.415 28.345C119.155 29.815 120.025 31.825 120.025 34.375V45.625C120.025 46.945 119.605 47.905 118.765 48.505C117.925 49.105 116.605 49.405 114.805 49.405V47.56C115.315 47.05 115.66 46.675 115.84 46.435L115.66 46.21C114.67 47.26 113.605 48.055 112.465 48.595C111.355 49.135 109.93 49.405 108.19 49.405ZM109.63 45.31C111.19 45.31 112.405 45.01 113.275 44.41C114.145 43.81 114.58 42.955 114.58 41.845C114.58 40.765 114.13 39.91 113.23 39.28C112.36 38.65 111.175 38.335 109.675 38.335C108.295 38.335 107.2 38.65 106.39 39.28C105.61 39.88 105.22 40.735 105.22 41.845C105.22 42.985 105.61 43.855 106.39 44.455C107.17 45.025 108.25 45.31 109.63 45.31ZM145.361 47.785C145.091 48.295 144.701 48.7 144.191 49C143.681 49.27 143.096 49.405 142.436 49.405C141.866 49.405 141.356 49.27 140.906 49C140.456 48.76 140.021 48.355 139.601 47.785L133.661 39.01L130.601 41.845V45.985C130.601 47.185 130.136 48.055 129.206 48.595C128.306 49.135 126.926 49.405 125.066 49.405V21.415C125.066 18.535 126.941 17.095 130.691 17.095V35.68L140.996 26.095C142.496 27.265 143.246 28.225 143.246 28.975C143.246 29.455 143.111 29.875 142.841 30.235C142.601 30.595 142.211 31.015 141.671 31.495L136.946 35.905L145.361 47.785ZM149.588 29.515C149.588 28.285 150.038 27.415 150.938 26.905C151.868 26.365 153.278 26.095 155.168 26.095V45.985C155.168 47.185 154.703 48.055 153.773 48.595C152.843 49.135 151.448 49.405 149.588 49.405V29.515ZM160.486 30.415C160.486 29.035 160.921 27.97 161.791 27.22C162.691 26.47 164.041 26.095 165.841 26.095V28.795C165.481 29.215 165.121 29.695 164.761 30.235L165.031 30.415C165.931 29.065 167.086 28.015 168.496 27.265C169.906 26.485 171.466 26.095 173.176 26.095C174.706 26.095 176.056 26.44 177.226 27.13C178.396 27.82 179.296 28.765 179.926 29.965C180.586 31.165 180.916 32.515 180.916 34.015V45.985C180.916 47.185 180.451 48.055 179.521 48.595C178.591 49.135 177.181 49.405 175.291 49.405V34.825C175.291 33.685 174.946 32.755 174.256 32.035C173.596 31.315 172.621 30.955 171.331 30.955C169.801 30.955 168.541 31.435 167.551 32.395C166.561 33.325 166.066 34.495 166.066 35.905V45.985C166.066 47.185 165.616 48.055 164.716 48.595C163.816 49.135 162.406 49.405 160.486 49.405V30.415Z" fill="#00F8FF"/>
    <path d="M45.2513 39.1323L45.3504 39.1819C47.655 40.4704 48.547 43.3697 47.3328 45.699C43.1202 53.7525 34.6455 59.2536 24.907 59.1793C11.3276 59.0801 0.201484 48.0283 0.00324541 34.4489C-0.219774 20.4235 11.0799 9 25.0805 9C32.9853 9 40.0475 12.6674 44.6318 18.3916L35.6615 23.2484C32.787 20.4483 28.7975 18.7633 24.4362 18.9367C16.4323 19.2589 9.98954 25.8751 9.89042 33.9038C9.7913 42.3785 16.6305 49.2673 25.0557 49.2673C30.9038 49.2673 35.9836 45.9716 38.5112 41.1147C39.7997 38.6863 42.8477 37.7942 45.2513 39.1323Z" fill="#5669FF"/>
    <path d="M47.4072 22.6536C48.5223 24.8342 47.7293 27.5105 45.5735 28.6999L40.0723 31.7478L26.4434 39.3057C24.3123 40.4951 21.6361 39.9004 20.1989 37.918L20.1493 37.8437C18.4395 35.4896 19.1829 32.1443 21.76 30.7566L35.6863 23.2236L44.6566 18.3667C45.6974 19.7048 46.6142 21.142 47.4072 22.6536Z" fill="#00F8FF"/>
</svg>
