<svg width="150" height="46" viewBox="0 0 150 46" fill="none" xmlns="http://www.w3.org/2000/svg">
    <rect opacity="0.5" width="150" height="46" rx="8" fill="#00F8FF" fill-opacity="0.2"/>
    <path d="M54.3753 29.126C53.6193 29.126 52.9379 28.972 52.3313 28.664C51.7246 28.356 51.2486 27.936 50.9033 27.404C50.5579 26.8627 50.3853 26.256 50.3853 25.584V20.264C50.3853 19.8813 50.5159 19.5873 50.7773 19.382C51.0386 19.1767 51.4119 19.074 51.8973 19.074V25.584C51.8973 26.2467 52.1213 26.7833 52.5693 27.194C53.0266 27.5953 53.6286 27.796 54.3753 27.796C55.1219 27.796 55.7193 27.5953 56.1673 27.194C56.6246 26.7833 56.8533 26.2467 56.8533 25.584V20.264C56.8533 19.872 56.9793 19.578 57.2313 19.382C57.4926 19.1767 57.8706 19.074 58.3653 19.074V25.584C58.3653 26.256 58.1926 26.8627 57.8473 27.404C57.5019 27.9453 57.0259 28.37 56.4193 28.678C55.8126 28.9767 55.1313 29.126 54.3753 29.126ZM60.1486 22.938C60.1486 22.6207 60.2559 22.364 60.4706 22.168C60.6946 21.972 61.0259 21.874 61.4646 21.874V22.644C61.4179 22.7093 61.3713 22.7747 61.3246 22.84C61.2779 22.896 61.2313 22.9567 61.1846 23.022L61.2406 23.078C61.5299 22.6953 61.8566 22.4013 62.2206 22.196C62.5939 21.9813 63.0419 21.874 63.5646 21.874C64.3579 21.874 64.9973 22.1027 65.4826 22.56C65.9773 23.008 66.2246 23.6007 66.2246 24.338V26.676C66.2246 27.4133 65.9633 28.006 65.4406 28.454C64.9273 28.902 64.2599 29.126 63.4386 29.126C63.0373 29.126 62.6499 29.042 62.2766 28.874C61.9033 28.6967 61.5813 28.468 61.3106 28.188L61.2686 28.258C61.3339 28.3513 61.4319 28.454 61.5626 28.566V30.904C61.5626 31.5853 61.0913 31.926 60.1486 31.926V22.938ZM63.2006 27.908C63.7233 27.908 64.1293 27.7913 64.4186 27.558C64.7079 27.3247 64.8526 27.0027 64.8526 26.592V24.408C64.8526 23.988 64.7079 23.666 64.4186 23.442C64.1293 23.2087 63.7186 23.092 63.1866 23.092C62.7199 23.092 62.3279 23.2133 62.0106 23.456C61.7026 23.6893 61.5486 23.9833 61.5486 24.338V26.662C61.5486 27.0167 61.6979 27.3153 61.9966 27.558C62.3046 27.7913 62.7059 27.908 63.2006 27.908ZM70.7286 31.926C70.2152 31.926 69.7486 31.8467 69.3286 31.688C68.9086 31.5387 68.5772 31.3287 68.3346 31.058C68.0919 30.7967 67.9706 30.5073 67.9706 30.19C67.9706 29.686 68.3112 29.434 68.9926 29.434C69.0112 29.854 69.1699 30.1853 69.4686 30.428C69.7766 30.6707 70.1966 30.792 70.7286 30.792C71.8579 30.792 72.4226 30.2367 72.4226 29.126V28.426C72.5532 28.314 72.6512 28.2113 72.7166 28.118L72.6746 28.048C72.4132 28.3187 72.0772 28.5427 71.6666 28.72C71.2652 28.8973 70.8686 28.986 70.4766 28.986C69.9539 28.986 69.4826 28.8833 69.0626 28.678C68.6519 28.4727 68.3299 28.188 68.0966 27.824C67.8632 27.4507 67.7466 27.0213 67.7466 26.536V24.338C67.7466 23.862 67.8679 23.4373 68.1106 23.064C68.3532 22.6907 68.6799 22.4013 69.0906 22.196C69.5012 21.9813 69.9539 21.874 70.4486 21.874C70.9526 21.874 71.3866 21.9813 71.7506 22.196C72.1239 22.4107 72.4552 22.7047 72.7446 23.078L72.8006 23.022C72.7166 22.8913 72.6232 22.77 72.5206 22.658C72.5206 22.1353 72.9592 21.874 73.8366 21.874V28.958C73.8366 29.5367 73.7012 30.05 73.4306 30.498C73.1692 30.9553 72.8006 31.3053 72.3246 31.548C71.8579 31.8 71.3259 31.926 70.7286 31.926ZM70.7706 27.782C71.2466 27.782 71.6432 27.6607 71.9606 27.418C72.2872 27.166 72.4506 26.8673 72.4506 26.522V24.338C72.4506 23.9833 72.2919 23.6847 71.9746 23.442C71.6572 23.1993 71.2652 23.078 70.7986 23.078C70.2666 23.078 69.8559 23.1947 69.5666 23.428C69.2866 23.6613 69.1466 23.988 69.1466 24.408V26.452C69.1466 26.8627 69.2866 27.1893 69.5666 27.432C69.8559 27.6653 70.2572 27.782 70.7706 27.782ZM78.9002 23.092C78.3682 23.092 77.9295 23.246 77.5842 23.554C77.2389 23.862 77.0662 24.24 77.0662 24.688V28.174C77.0662 28.51 76.9495 28.7527 76.7162 28.902C76.4922 29.0513 76.1422 29.126 75.6662 29.126V23.008C75.6662 22.252 76.1142 21.874 77.0102 21.874V22.714C76.8889 22.854 76.7815 22.9987 76.6882 23.148L76.7582 23.204C77.3462 22.3173 78.0882 21.874 78.9842 21.874C79.3389 21.874 79.6095 21.9627 79.7962 22.14C79.9922 22.3173 80.0902 22.5367 80.0902 22.798C80.0902 22.994 80.0389 23.162 79.9362 23.302C79.6749 23.162 79.3295 23.092 78.9002 23.092ZM83.1582 29.126C82.3835 29.126 81.7488 28.916 81.2542 28.496C80.7595 28.0667 80.5122 27.4973 80.5122 26.788C80.5122 26.0693 80.7735 25.4953 81.2962 25.066C81.8188 24.6367 82.4955 24.422 83.3262 24.422C84.2035 24.422 84.9268 24.7207 85.4962 25.318L85.5522 25.262C85.4308 25.1313 85.3048 25.01 85.1742 24.898V24.422C85.1742 23.974 85.0295 23.6287 84.7402 23.386C84.4508 23.134 84.0448 23.008 83.5222 23.008C82.5795 23.008 81.8982 23.372 81.4782 24.1C81.3008 24.0253 81.1562 23.9227 81.0442 23.792C80.9415 23.652 80.8902 23.512 80.8902 23.372C80.8902 23.1107 81.0162 22.868 81.2682 22.644C81.5202 22.4107 81.8562 22.224 82.2762 22.084C82.6962 21.944 83.1442 21.874 83.6202 21.874C84.5348 21.874 85.2535 22.098 85.7762 22.546C86.2988 22.994 86.5602 23.6053 86.5602 24.38V28.104C86.5602 28.4587 86.4528 28.72 86.2382 28.888C86.0235 29.0467 85.6922 29.126 85.2442 29.126V28.496C85.4402 28.2813 85.5475 28.16 85.5662 28.132L85.5102 28.076C85.2022 28.4307 84.8568 28.6967 84.4742 28.874C84.1008 29.042 83.6622 29.126 83.1582 29.126ZM83.4522 28.062C84.0028 28.062 84.4322 27.95 84.7402 27.726C85.0482 27.502 85.2022 27.1893 85.2022 26.788C85.2022 26.3867 85.0482 26.0693 84.7402 25.836C84.4322 25.6027 84.0122 25.486 83.4802 25.486C82.9855 25.486 82.5935 25.6027 82.3042 25.836C82.0148 26.0693 81.8702 26.3867 81.8702 26.788C81.8702 27.1893 82.0102 27.502 82.2902 27.726C82.5702 27.95 82.9575 28.062 83.4522 28.062ZM90.916 29.126C90.3933 29.126 89.9267 29.0233 89.516 28.818C89.1147 28.6127 88.7973 28.3233 88.564 27.95C88.34 27.5767 88.228 27.1473 88.228 26.662V24.324C88.228 23.848 88.3447 23.4233 88.578 23.05C88.8113 22.6767 89.138 22.3873 89.558 22.182C89.9873 21.9767 90.468 21.874 91 21.874C91.4013 21.874 91.7887 21.958 92.162 22.126C92.5447 22.294 92.8713 22.518 93.142 22.798L93.184 22.728C93.128 22.6533 93.03 22.5553 92.89 22.434V20.096C92.89 19.7693 93.0067 19.5173 93.24 19.34C93.4733 19.1627 93.828 19.074 94.304 19.074V28.062C94.304 28.3793 94.1967 28.636 93.982 28.832C93.7767 29.028 93.45 29.126 93.002 29.126V28.342C93.1327 28.174 93.2213 28.0527 93.268 27.978L93.212 27.922C92.9227 28.3047 92.596 28.6033 92.232 28.818C91.868 29.0233 91.4293 29.126 90.916 29.126ZM91.266 27.908C91.7327 27.908 92.12 27.7867 92.428 27.544C92.7453 27.3013 92.904 27.0027 92.904 26.648V24.338C92.904 23.9833 92.75 23.6893 92.442 23.456C92.1433 23.2133 91.7467 23.092 91.252 23.092C90.7293 23.092 90.3233 23.2087 90.034 23.442C89.754 23.666 89.614 23.9833 89.614 24.394V26.578C89.614 27.0073 89.754 27.3387 90.034 27.572C90.3233 27.796 90.734 27.908 91.266 27.908ZM99.0447 29.126C98.4753 29.126 97.962 29.014 97.5047 28.79C97.0473 28.566 96.688 28.258 96.4267 27.866C96.1653 27.474 96.0347 27.0353 96.0347 26.55V24.548C96.0347 24.044 96.17 23.5913 96.4407 23.19C96.7207 22.7793 97.0893 22.4573 97.5467 22.224C98.004 21.9907 98.5033 21.874 99.0447 21.874C99.586 21.874 100.081 21.986 100.529 22.21C100.977 22.434 101.331 22.7467 101.593 23.148C101.854 23.54 101.985 23.988 101.985 24.492V25.36C101.985 25.5187 101.919 25.6587 101.789 25.78C101.667 25.892 101.518 25.948 101.341 25.948H97.3927V26.48C97.3927 26.928 97.5327 27.292 97.8127 27.572C98.0927 27.8427 98.5033 27.978 99.0447 27.978C99.586 27.978 99.992 27.8613 100.263 27.628C100.543 27.3853 100.683 27.068 100.683 26.676C101.019 26.648 101.294 26.704 101.509 26.844C101.723 26.9747 101.831 27.1753 101.831 27.446C101.831 27.7353 101.7 28.0107 101.439 28.272C101.187 28.524 100.846 28.7293 100.417 28.888C99.9967 29.0467 99.5393 29.126 99.0447 29.126ZM100.711 24.898V24.492C100.711 24.0533 100.557 23.6987 100.249 23.428C99.9407 23.148 99.5393 23.008 99.0447 23.008C98.55 23.008 98.1487 23.148 97.8407 23.428C97.542 23.6987 97.3927 24.0533 97.3927 24.492V24.898H100.711ZM107.125 19.9C107.125 19.6947 107.195 19.5267 107.335 19.396C107.485 19.2653 107.671 19.2 107.895 19.2H111.913C112.548 19.2 113.108 19.3307 113.593 19.592C114.088 19.844 114.471 20.208 114.741 20.684C115.012 21.1507 115.147 21.692 115.147 22.308C115.147 22.9333 115.012 23.484 114.741 23.96C114.48 24.436 114.102 24.8047 113.607 25.066C113.122 25.318 112.557 25.444 111.913 25.444H108.637V27.936C108.637 28.3187 108.507 28.6127 108.245 28.818C107.984 29.0233 107.611 29.126 107.125 29.126V19.9ZM111.913 24.128C112.455 24.128 112.879 23.9693 113.187 23.652C113.495 23.3253 113.649 22.8773 113.649 22.308C113.649 21.7573 113.491 21.3233 113.173 21.006C112.865 20.6793 112.445 20.516 111.913 20.516H108.637V24.128H111.913ZM119.396 23.092C118.864 23.092 118.426 23.246 118.08 23.554C117.735 23.862 117.562 24.24 117.562 24.688V28.174C117.562 28.51 117.446 28.7527 117.212 28.902C116.988 29.0513 116.638 29.126 116.162 29.126V23.008C116.162 22.252 116.61 21.874 117.506 21.874V22.714C117.385 22.854 117.278 22.9987 117.184 23.148L117.254 23.204C117.842 22.3173 118.584 21.874 119.48 21.874C119.835 21.874 120.106 21.9627 120.292 22.14C120.488 22.3173 120.586 22.5367 120.586 22.798C120.586 22.994 120.535 23.162 120.432 23.302C120.171 23.162 119.826 23.092 119.396 23.092ZM123.801 29.126C123.213 29.126 122.686 29.0187 122.219 28.804C121.752 28.5893 121.384 28.2953 121.113 27.922C120.852 27.5393 120.721 27.1147 120.721 26.648V24.45C120.721 23.974 120.852 23.54 121.113 23.148C121.374 22.756 121.738 22.448 122.205 22.224C122.672 21.9907 123.204 21.874 123.801 21.874C124.398 21.874 124.93 21.9907 125.397 22.224C125.864 22.448 126.228 22.756 126.489 23.148C126.76 23.54 126.895 23.974 126.895 24.45V26.648C126.895 27.1147 126.76 27.5393 126.489 27.922C126.228 28.2953 125.859 28.5893 125.383 28.804C124.916 29.0187 124.389 29.126 123.801 29.126ZM123.801 27.922C124.333 27.922 124.753 27.8007 125.061 27.558C125.369 27.306 125.523 26.9747 125.523 26.564V24.506C125.523 24.0767 125.364 23.7313 125.047 23.47C124.739 23.2087 124.324 23.078 123.801 23.078C123.278 23.078 122.858 23.2087 122.541 23.47C122.233 23.7313 122.079 24.0767 122.079 24.506V26.564C122.079 26.9747 122.233 27.306 122.541 27.558C122.849 27.8007 123.269 27.922 123.801 27.922Z" fill="#00F8FF"/>
    <path opacity="0.3" d="M37.4853 30.6051H18.5222C17.9404 30.6051 17.4688 31.0768 17.4688 31.6586V31.6586C17.4688 32.2404 17.9404 32.7121 18.5222 32.7121H37.4853C38.0671 32.7121 38.5387 32.2404 38.5387 31.6586C38.5387 31.0768 38.0671 30.6051 37.4853 30.6051Z" fill="#00F8FF"/>
    <path d="M23.3139 18.3236C22.9814 18.7225 22.4078 18.8197 21.9625 18.5525L19.0643 16.8135C18.3621 16.3922 17.4688 16.898 17.4688 17.7169V27.4447C17.4688 28.0265 17.9404 28.4982 18.5222 28.4982H37.4852C38.0671 28.4982 38.5387 28.0265 38.5387 27.4447V17.7169C38.5387 16.898 37.6454 16.3922 36.9432 16.8135L34.0449 18.5525C33.5996 18.8197 33.0261 18.7225 32.6936 18.3236L28.813 13.6669C28.3918 13.1615 27.6156 13.1615 27.1944 13.6669L23.3139 18.3236Z" fill="#00F8FF"/>
</svg>
