<svg width="1080" height="2339" viewBox="0 0 1080 2339" fill="none" xmlns="http://www.w3.org/2000/svg">
    <g clip-path="url(#clip0_704_8069)">
        <rect width="1080" height="2338.45" fill="white"/>
        <g opacity="0.7" filter="url(#filter0_f_704_8069)">
            <ellipse cx="1164" cy="-169.5" rx="624" ry="574.5" fill="url(#paint0_angular_704_8069)" fill-opacity="0.4"/>
        </g>
        <g opacity="0.5" filter="url(#filter1_f_704_8069)">
            <ellipse cx="736.914" cy="679.204" rx="736.914" ry="679.204" transform="matrix(0.707107 -0.707107 -0.707107 -0.707107 -133.46 3281.69)" fill="url(#paint1_angular_704_8069)" fill-opacity="0.5"/>
        </g>
        <path d="M434.521 1042.14C434.521 1038.21 435.758 1035.18 438.233 1033.05C440.793 1030.91 444.633 1029.85 449.753 1029.85V1037.53C448.729 1038.72 447.705 1040.09 446.681 1041.62L447.449 1042.14C450.009 1038.3 453.294 1035.31 457.305 1033.18C461.315 1030.96 465.753 1029.85 470.617 1029.85C474.969 1029.85 478.809 1030.83 482.137 1032.79C485.465 1034.75 488.025 1037.44 489.817 1040.86C491.694 1044.27 492.633 1048.11 492.633 1052.38V1086.42C492.633 1089.84 491.31 1092.31 488.665 1093.85C486.019 1095.38 482.009 1096.15 476.633 1096.15V1054.68C476.633 1051.44 475.651 1048.79 473.689 1046.74C471.811 1044.7 469.038 1043.67 465.369 1043.67C461.017 1043.67 457.433 1045.04 454.617 1047.77C451.801 1050.41 450.393 1053.74 450.393 1057.75V1086.42C450.393 1089.84 449.113 1092.31 446.553 1093.85C443.993 1095.38 439.982 1096.15 434.521 1096.15V1042.14ZM512.636 1121.75C509.308 1121.75 506.662 1120.6 504.7 1118.3C502.822 1115.99 501.884 1112.66 501.884 1108.31C504.444 1108.74 506.577 1108.95 508.284 1108.95C511.526 1108.95 514.086 1108.1 515.964 1106.39C517.926 1104.69 520.06 1101.27 522.364 1096.15L524.412 1091.42L499.708 1031.13C500.305 1030.79 501.329 1030.49 502.78 1030.23C504.316 1029.98 505.553 1029.85 506.492 1029.85C508.966 1029.85 511.228 1030.4 513.276 1031.51C515.324 1032.54 516.732 1033.99 517.5 1035.86L531.196 1071.83L529.02 1077.85L530.172 1078.23L546.684 1035.86C547.452 1033.9 548.817 1032.41 550.78 1031.38C552.828 1030.36 555.089 1029.85 557.564 1029.85C558.502 1029.85 559.697 1029.98 561.148 1030.23C562.684 1030.49 563.793 1030.79 564.476 1031.13L535.804 1100.76C532.817 1107.93 529.532 1113.22 525.948 1116.63C522.449 1120.05 518.012 1121.75 512.636 1121.75ZM589.644 1096.15C585.292 1096.15 581.281 1095.3 577.612 1093.59C574.028 1091.89 571.126 1089.45 568.908 1086.3C566.774 1083.05 565.708 1079.21 565.708 1074.78C565.708 1070.34 566.86 1066.5 569.164 1063.26C571.468 1059.93 574.582 1057.41 578.508 1055.7C582.518 1053.91 586.913 1053.02 591.692 1053.02C595.617 1053.02 599.116 1053.66 602.188 1054.94C605.345 1056.13 608.246 1057.97 610.892 1060.44L611.532 1059.8C610.764 1059.03 609.441 1057.88 607.564 1056.34V1053.78C607.564 1050.29 606.326 1047.51 603.852 1045.46C601.377 1043.42 597.921 1042.39 593.484 1042.39C585.548 1042.39 579.702 1045.29 575.948 1051.1C574.07 1050.5 572.492 1049.56 571.212 1048.28C569.932 1046.91 569.292 1045.46 569.292 1043.93C569.292 1041.37 570.444 1039.02 572.748 1036.89C575.052 1034.75 578.166 1033.05 582.092 1031.77C586.017 1030.49 590.284 1029.85 594.892 1029.85C603.937 1029.85 610.934 1031.98 615.884 1036.25C620.833 1040.43 623.308 1046.15 623.308 1053.4V1085.4C623.308 1089.15 622.113 1091.89 619.724 1093.59C617.334 1095.3 613.58 1096.15 608.46 1096.15V1090.9C609.91 1089.45 610.892 1088.39 611.404 1087.7L610.892 1087.06C608.076 1090.05 605.046 1092.31 601.804 1093.85C598.646 1095.38 594.593 1096.15 589.644 1096.15ZM593.74 1084.5C598.177 1084.5 601.633 1083.65 604.108 1081.94C606.582 1080.24 607.82 1077.81 607.82 1074.65C607.82 1071.58 606.54 1069.14 603.98 1067.35C601.505 1065.56 598.134 1064.66 593.868 1064.66C589.942 1064.66 586.828 1065.56 584.524 1067.35C582.305 1069.06 581.196 1071.49 581.196 1074.65C581.196 1077.89 582.305 1080.37 584.524 1082.07C586.742 1083.69 589.814 1084.5 593.74 1084.5ZM695.374 1091.54C694.606 1092.99 693.496 1094.15 692.046 1095C690.595 1095.77 688.931 1096.15 687.054 1096.15C685.432 1096.15 683.982 1095.77 682.702 1095C681.422 1094.32 680.184 1093.17 678.99 1091.54L662.094 1066.58L653.39 1074.65V1086.42C653.39 1089.84 652.067 1092.31 649.422 1093.85C646.862 1095.38 642.936 1096.15 637.646 1096.15V1016.54C637.646 1008.34 642.979 1004.25 653.646 1004.25V1057.11L682.958 1029.85C687.224 1033.18 689.358 1035.91 689.358 1038.04C689.358 1039.41 688.974 1040.6 688.206 1041.62C687.523 1042.65 686.414 1043.84 684.878 1045.21L671.438 1057.75L695.374 1091.54ZM707.396 1039.58C707.396 1036.08 708.676 1033.6 711.236 1032.15C713.881 1030.62 717.892 1029.85 723.268 1029.85V1086.42C723.268 1089.84 721.945 1092.31 719.3 1093.85C716.654 1095.38 712.686 1096.15 707.396 1096.15V1039.58ZM738.396 1042.14C738.396 1038.21 739.633 1035.18 742.108 1033.05C744.668 1030.91 748.508 1029.85 753.628 1029.85V1037.53C752.604 1038.72 751.58 1040.09 750.556 1041.62L751.324 1042.14C753.884 1038.3 757.169 1035.31 761.18 1033.18C765.19 1030.96 769.628 1029.85 774.492 1029.85C778.844 1029.85 782.684 1030.83 786.012 1032.79C789.34 1034.75 791.9 1037.44 793.692 1040.86C795.569 1044.27 796.508 1048.11 796.508 1052.38V1086.42C796.508 1089.84 795.185 1092.31 792.54 1093.85C789.894 1095.38 785.884 1096.15 780.508 1096.15V1054.68C780.508 1051.44 779.526 1048.79 777.564 1046.74C775.686 1044.7 772.913 1043.67 769.244 1043.67C764.892 1043.67 761.308 1045.04 758.492 1047.77C755.676 1050.41 754.268 1053.74 754.268 1057.75V1086.42C754.268 1089.84 752.988 1092.31 750.428 1093.85C747.868 1095.38 743.857 1096.15 738.396 1096.15V1042.14Z" fill="#5669FF"/>
        <path d="M418.645 1078.38L418.955 1078.54C426.169 1082.62 428.961 1091.79 425.16 1099.17C411.974 1124.66 385.447 1142.07 354.964 1141.84C312.458 1141.52 277.631 1106.54 277.01 1063.56C276.312 1019.16 311.682 983 355.506 983C380.25 983 402.356 994.609 416.706 1012.73L388.627 1028.1C379.629 1019.24 367.141 1013.9 353.49 1014.45C328.436 1015.47 308.269 1036.42 307.959 1061.83C307.649 1088.66 329.057 1110.46 355.429 1110.46C373.734 1110.46 389.635 1100.03 397.547 1084.65C401.58 1076.97 411.121 1074.14 418.645 1078.38Z" fill="#5669FF"/>
        <path d="M425.393 1026.22C428.883 1033.12 426.401 1041.59 419.653 1045.36L402.434 1055.01L359.773 1078.93C353.102 1082.69 344.725 1080.81 340.226 1074.54L340.071 1074.3C334.719 1066.85 337.046 1056.26 345.113 1051.87L388.705 1028.02L416.783 1012.65C420.041 1016.89 422.911 1021.43 425.393 1026.22Z" fill="#00F8FF"/>
    </g>
    <defs>
        <filter id="filter0_f_704_8069" x="440" y="-844" width="1448" height="1349" filterUnits="userSpaceOnUse" color-interpolation-filters="sRGB">
            <feFlood flood-opacity="0" result="BackgroundImageFix"/>
            <feBlend mode="normal" in="SourceGraphic" in2="BackgroundImageFix" result="shape"/>
            <feGaussianBlur stdDeviation="50" result="effect1_foregroundBlur_704_8069"/>
        </filter>
        <filter id="filter1_f_704_8069" x="-901.304" y="1471.7" width="1617.3" height="1617.3" filterUnits="userSpaceOnUse" color-interpolation-filters="sRGB">
            <feFlood flood-opacity="0" result="BackgroundImageFix"/>
            <feBlend mode="normal" in="SourceGraphic" in2="BackgroundImageFix" result="shape"/>
            <feGaussianBlur stdDeviation="50" result="effect1_foregroundBlur_704_8069"/>
        </filter>
        <radialGradient id="paint0_angular_704_8069" cx="0" cy="0" r="1" gradientUnits="userSpaceOnUse" gradientTransform="translate(1164 -169.5) rotate(90) scale(1004.73 1091.3)">
            <stop stop-color="#B9DAFB"/>
            <stop offset="0.0001" stop-color="#9895EE"/>
            <stop offset="0.0002" stop-color="#C55492"/>
            <stop offset="0.266645" stop-color="#ECACAD"/>
        </radialGradient>
        <radialGradient id="paint1_angular_704_8069" cx="0" cy="0" r="1" gradientUnits="userSpaceOnUse" gradientTransform="translate(736.914 679.204) rotate(90) scale(947.346 1027.84)">
            <stop stop-color="#B9DAFB"/>
            <stop offset="0.266645" stop-color="#ECACAD"/>
            <stop offset="0.572917" stop-color="#9895EE"/>
            <stop offset="0.8125" stop-color="#90A2F8"/>
            <stop offset="1" stop-color="#C55492"/>
        </radialGradient>
        <clipPath id="clip0_704_8069">
            <rect width="1080" height="2338.45" fill="white"/>
        </clipPath>
    </defs>
</svg>
